# xmcd
#
# Track frame offsets:
#	150
#	15166
#	32812
#	47947
#	62708
#	77002
#	93377
#	109107
#	128352
#	143630
#	164229
#	183519
#	200424
#	216385
#	231412
#
# Disc length: 3359 seconds
#
# Revision: 0
# Processed by: cddbd v1.5.2PL0 Copyright (c) Steve Scherf et al.
# Submitted via: SynApp - FreeCDDB Version: 2.3
#
DISCID=d00d1d0f
DTITLE=Alabama - When It All Goes South
DYEAR=1998
DGENRE=Country
TTITLE0=When It All Goes South
TTITLE1=weitere
TTITLE2=weitere
TTITLE3=weitere
TTITLE4=weitere
TTITLE5=weitere
TTITLE6=weitere
TTITLE7=weitere
TTITLE8=weitere
TTITLE9=weitere
TTITLE10=weitere
TTITLE11=weitere
TTITLE12=weitere
TTITLE13=weitere
TTITLE14=weitere
EXTD=
EXTT0=
EXTT1=
EXTT2=
EXTT3=
EXTT4=
EXTT5=
EXTT6=
EXTT7=
EXTT8=
EXTT9=
EXTT10=
EXTT11=
EXTT12=
EXTT13=
EXTT14=
PLAYORDER=
